<svg width="26" height="26" viewBox="0 0 26 26" fill="none" xmlns="http://www.w3.org/2000/svg">
<path fill-rule="evenodd" clip-rule="evenodd" d="M12.9999 2.50002C10.4226 2.50002 8.33323 4.58936 8.33323 7.16669C8.33323 9.74402 10.4226 11.8334 12.9999 11.8334C15.5772 11.8334 17.6666 9.74402 17.6666 7.16669C17.6666 4.58936 15.5772 2.50002 12.9999 2.50002ZM17.4031 12.6086C18.9872 11.3253 19.9999 9.36423 19.9999 7.16669C19.9999 3.30069 16.8659 0.166687 12.9999 0.166687C9.1339 0.166687 5.9999 3.30069 5.9999 7.16669C5.9999 9.36423 7.01253 11.3253 8.59664 12.6086C4.06156 14.265 0.723381 18.4072 0.229694 23.3865C0.0904081 24.7914 1.24577 25.8334 2.4999 25.8334H23.4999C24.7541 25.8334 25.9094 24.7914 25.7701 23.3865C25.2764 18.4072 21.9382 14.265 17.4031 12.6086ZM12.9999 14.1667C7.59548 14.1667 3.14349 18.2506 2.56388 23.5H23.436C22.8562 18.2506 18.4044 14.1667 12.9999 14.1667Z" fill="#43AA72"/>
</svg>
