<svg width="40" height="40" viewBox="0 0 40 40" fill="none" xmlns="http://www.w3.org/2000/svg">
<path fill-rule="evenodd" clip-rule="evenodd" d="M20 5C16.3181 5 13.3333 7.98477 13.3333 11.6667C13.3333 15.3486 16.3181 18.3333 20 18.3333C23.6818 18.3333 26.6666 15.3486 26.6666 11.6667C26.6666 7.98477 23.6818 5 20 5ZM26.2903 19.4408C28.5533 17.6075 30 14.806 30 11.6667C30 6.14382 25.5228 1.66667 20 1.66667C14.4771 1.66667 9.99996 6.14382 9.99996 11.6667C9.99996 14.806 11.4466 17.6075 13.7096 19.4408C7.23091 21.8072 2.46208 27.7245 1.75681 34.8378C1.55783 36.8448 3.20834 38.3333 4.99996 38.3333H35C36.7916 38.3333 38.4421 36.8448 38.2431 34.8378C37.5378 27.7245 32.769 21.8072 26.2903 19.4408ZM20 21.6667C12.2794 21.6667 5.91938 27.5008 5.09136 35H34.9086C34.0805 27.5008 27.7206 21.6667 20 21.6667Z" fill="#293644"/>
</svg>
