<svg width="61" height="61" viewBox="0 0 61 61" fill="none" xmlns="http://www.w3.org/2000/svg">
<mask id="mask0_84_147" style="mask-type:luminance" maskUnits="userSpaceOnUse" x="0" y="0" width="61" height="61">
<path d="M60.6364 0H0V61H60.6364V0Z" fill="white"/>
</mask>
<g mask="url(#mask0_84_147)">
<path d="M29.6519 10.9072V27.303L43.7896 19.0917C40.566 14.5505 35.4734 11.4409 29.6519 10.9072ZM34.8167 21.835L31.3608 20.9035L32.6702 15.987L36.1262 16.9185L34.8167 21.835Z" fill="#5C434D"/>
<path d="M43.7228 42.0003L29.6519 33.8277V50.0926C35.4338 49.5627 40.496 46.4913 43.7228 42.0003ZM35.4233 44.4898L31.8455 40.8906L34.3754 38.3456L37.9531 41.9448L35.4233 44.4898Z" fill="#5C434D"/>
<path d="M26.0739 10.9072C20.1646 11.4489 15.0071 14.6455 11.7925 19.2988L26.0739 27.5935V10.9072ZM21.3505 22.6544L17.7728 19.0552L20.3025 16.5102L23.8804 20.1095L21.3505 22.6544Z" fill="#5C434D"/>
<path d="M29.6519 7.29399C36.7944 7.84607 43.038 11.676 46.8981 17.2863L53.1947 13.6291C52.0811 11.9446 50.7932 10.3587 49.3388 8.89548C44.0259 3.55065 37.0914 0.431909 29.6519 0V7.29399Z" fill="#5C434D"/>
<path d="M54.9444 44.3618C57.0953 40.1207 58.2349 35.3986 58.2349 30.4999C58.2349 25.6401 57.1141 20.9538 54.9963 16.7387L48.7025 20.3943C50.1738 23.4522 50.9995 26.8809 50.9995 30.4999C50.9995 34.1593 50.1545 37.6235 48.6523 40.7073L54.9444 44.3618Z" fill="#5C434D"/>
<path d="M26.074 50.0928V33.537L11.8569 41.7945C15.0759 46.3973 20.2041 49.5546 26.074 50.0928ZM20.9093 39.1649L24.3652 40.0966L23.0556 45.0132L19.5997 44.0814L20.9093 39.1649Z" fill="#5C434D"/>
<path d="M8.68466 17.4937C12.5326 11.77 18.8433 7.8528 26.074 7.29399V0C21.2721 0.28398 16.5997 1.70712 12.4624 4.16036C8.41263 6.56177 4.96284 9.89083 2.40186 13.8446L8.68466 17.4937Z" fill="#5C434D"/>
<path d="M46.8337 43.8072C42.9687 49.3665 36.7547 53.1572 29.6519 53.7062V61.0001C37.0913 60.5682 44.0259 57.4495 49.3389 52.1047C50.7661 50.6688 52.0335 49.1153 53.1328 47.4658L46.8337 43.8072Z" fill="#5C434D"/>
<path d="M26.074 53.706C18.8829 53.1502 12.6027 49.2722 8.74908 43.5996L2.46289 47.2507C5.01755 51.1628 8.44506 54.4576 12.4625 56.8397C16.5997 59.2929 21.2722 60.7159 26.074 61V53.706Z" fill="#5C434D"/>
<path d="M47.4214 30.4999C47.4214 27.5358 46.7652 24.7234 45.5932 22.2L31.1904 30.5654L45.5454 38.9029C46.7476 36.3533 47.4214 33.5045 47.4214 30.4999ZM38.7989 32.2257L37.873 28.7489L42.7603 27.4316L43.6862 30.9084L38.7989 32.2257Z" fill="#5C434D"/>
</g>
</svg>
